<svg width="32" height="32" viewBox="0 0 32 32" fill="none" xmlns="http://www.w3.org/2000/svg">
<path d="M15.2199 6.54569C15.2839 6.38416 15.3921 6.24611 15.5309 6.14897C15.6698 6.05184 15.833 6 16 6C16.167 6 16.3302 6.05184 16.4691 6.14897C16.6079 6.24611 16.7161 6.38416 16.7801 6.54569L19.0445 12.2448C19.0695 12.3084 19.1107 12.3635 19.1636 12.4042C19.2165 12.4448 19.2791 12.4694 19.3445 12.4752L25.2221 12.9688C25.3884 12.9826 25.5472 13.0476 25.6782 13.1558C25.8093 13.2639 25.9068 13.4103 25.9585 13.5764C26.0102 13.7425 26.0137 13.921 25.9685 14.0892C25.9234 14.2574 25.8317 14.4078 25.705 14.5215L21.2261 18.5363C21.1765 18.5811 21.1397 18.6392 21.1195 18.7043C21.0994 18.7695 21.0967 18.8392 21.1118 18.9058L22.479 24.9116C22.5176 25.0814 22.5072 25.2594 22.4493 25.4231C22.3914 25.5868 22.2885 25.7288 22.1536 25.8314C22.0187 25.9339 21.8578 25.9923 21.6912 25.9993C21.5246 26.0063 21.3598 25.9614 21.2175 25.8705L16.1857 22.6544C16.1298 22.6187 16.0655 22.5999 16 22.5999C15.9345 22.5999 15.8702 22.6187 15.8143 22.6544L10.7825 25.8705C10.6402 25.9614 10.4754 26.0063 10.3088 25.9993C10.1422 25.9923 9.98135 25.9339 9.84644 25.8314C9.71152 25.7288 9.60862 25.5868 9.5507 25.4231C9.49279 25.2594 9.48244 25.0814 9.52098 24.9116L10.8882 18.9058C10.9033 18.8392 10.9006 18.7695 10.8805 18.7043C10.8603 18.6392 10.8235 18.5811 10.7739 18.5363L6.29504 14.5215C6.16831 14.4078 6.07658 14.2574 6.03146 14.0892C5.98633 13.921 5.98982 13.7425 6.04149 13.5764C6.09316 13.4103 6.19069 13.2639 6.32176 13.1558C6.45283 13.0476 6.61157 12.9826 6.77793 12.9688L12.6541 12.4752C12.7195 12.4698 12.7823 12.4455 12.8355 12.4052C12.8887 12.3648 12.9302 12.3098 12.9555 12.2463L15.2199 6.54718V6.54569Z" fill="#262626"/>
</svg>
