<svg width="32" height="32" viewBox="0 0 32 32" fill="none" xmlns="http://www.w3.org/2000/svg">
<path fill-rule="evenodd" clip-rule="evenodd" d="M19.5309 10.1536L22.209 5.36399C25.9908 7.21328 27.9135 11.0895 28 15.0084L22.5726 15.141C22.5345 13.099 21.5223 11.0971 19.5309 10.1536ZM15.1844 10.3663C7.66901 10.3663 7.30023 21.6273 15.3141 21.6273C18.6458 21.6273 20.4668 19.29 20.7567 16.745L26.2095 16.675C25.9552 21.9301 22.359 27 15.5049 27C-0.146499 27 0.563077 5.00114 15.2505 5.00114C16.7858 4.98002 18.3106 5.25372 19.7394 5.80692L17.041 10.6291C16.4391 10.4499 15.8132 10.3613 15.1844 10.3663Z" fill="#262626"/>
</svg>
