<svg width="32" height="32" viewBox="0 0 32 32" fill="none" xmlns="http://www.w3.org/2000/svg">
<path fill-rule="evenodd" clip-rule="evenodd" d="M23.9531 24C22.851 24 9.5949 23.7966 8.18231 23.7714C6.57299 23.7394 5.88329 22.8572 6.01601 21.4447C6.05868 20.9876 6.21985 19.102 6.39523 17.0359L14.4537 16.9628L14.6409 18.1421L17.7647 17.8541L17.7908 16.9399L25.7236 16.8668C25.8492 19.0678 25.9606 21.175 25.9962 21.7556C26.0602 23.2709 25.3207 24 23.9531 24ZM17.8382 14.9652L14.174 15.2554L14.264 15.8268L6.47819 16.0554C6.70335 13.3813 6.92377 10.7346 6.92377 10.7346L25.3681 10.9632C25.3681 10.9632 25.4961 13.107 25.6335 15.4863L17.8121 15.7148L17.8382 14.9652ZM19.7106 9.21699L12.4414 8.98387L12.1404 9.83867L10.4813 9.80438C10.4813 9.80438 10.6354 9.05472 10.7752 8.54732C11.043 7.55996 11.4152 7 12.631 7C13.2093 7 18.2079 7.22856 18.9308 7.22856C20.2391 7.22856 21.135 7.71766 21.3009 8.55418C21.391 8.99758 21.5972 10.0421 21.5972 10.0421L20.0069 10.0101L19.7106 9.21699Z" fill="#262626"/>
</svg>
