<svg width="32" height="32" viewBox="0 0 32 32" fill="none" xmlns="http://www.w3.org/2000/svg">
<path fill-rule="evenodd" clip-rule="evenodd" d="M24.8799 25.232C24.9039 27.0246 23.8943 27.8402 21.7164 27.9223C16.7554 28.116 11.0604 27.893 9.20601 27.8402C6.97715 27.7756 5.97357 26.5816 6.00053 24.6892C6.02749 22.7969 6.36002 5.21124 6.36002 5.21124C6.36002 5.21124 14.1071 5.06161 18.7476 5C19.9129 5 21.2281 5.55157 21.303 7.3471C21.4198 10.1108 21.4258 20.3588 21.4677 22.7206C21.4917 24.0144 20.7158 24.9855 19.0382 25.0237C15.5391 25.1058 10.5062 24.9533 7.83994 24.8564C8.03167 25.7366 8.61585 26.0857 9.88306 26.0857C11.6146 26.0857 23.0645 26.0505 23.0645 26.0505L23.1843 9.78221L22.5133 8.45903L22.5732 7.02437C22.6838 7.05785 22.797 7.08238 22.9117 7.09772C23.9542 7.21507 24.8859 7.72557 24.9638 9.53283C25.0896 12.3083 24.844 22.5475 24.8799 25.232ZM18.1814 14.4999V12.8452L9.2899 12.7953V14.45L18.1814 14.4999ZM15.2605 10.8237V9.16903L9.4307 9.05461L9.1491 10.7475L15.2605 10.8237Z" fill="#262626"/>
</svg>
