<svg width="32" height="32" viewBox="0 0 32 32" fill="none" xmlns="http://www.w3.org/2000/svg">
<path fill-rule="evenodd" clip-rule="evenodd" d="M15.8329 25C2.45718 25 3.06114 6 15.6165 6C28.1285 6 28.0549 25 15.8329 25ZM22.2231 15.0836L18.7336 13.489L18.4349 9.29256L21.052 9.20863C19.7294 8.02718 17.9154 7.27183 15.6035 7.27183C15.4021 7.27183 15.2052 7.27183 15.0125 7.2912L16.0667 8.55012L12.6616 11.0077L8.87555 10.5192C8.27756 11.3559 7.83747 12.2936 7.57672 13.2867L8.97296 16.5147L7.67413 18.204C8.17118 19.852 9.21595 21.2836 10.6376 22.2648L12.482 21.9657L13.8998 23.5582C14.5232 23.6658 15.1548 23.7191 15.7875 23.7174C16.6607 23.7236 17.5299 23.5988 18.3656 23.3473L18.5821 20.1515L22.1604 17.5691L23.0912 18.8883C23.7701 17.1304 23.9006 15.2098 23.4657 13.3771L22.2231 15.0836ZM9.96656 16.6502L12.7807 12.8175L17.4175 14.3239V19.1874L12.9365 20.5862L9.96656 16.6502Z" fill="#262626"/>
</svg>
