<svg width="32" height="32" viewBox="0 0 32 32" fill="none" xmlns="http://www.w3.org/2000/svg">
<path fill-rule="evenodd" clip-rule="evenodd" d="M16 29C23.1797 29 29 23.1797 29 16C29 8.8203 23.1797 3 16 3C8.8203 3 3 8.8203 3 16C3 23.1797 8.8203 29 16 29ZM18.0606 9.36963C18.1587 9.39431 18.254 9.4207 18.3466 9.44878C19.1229 9.68031 19.7017 10.0616 20.083 10.5928C20.478 11.1239 20.6754 11.8321 20.6754 12.7174C20.6754 13.2894 20.5801 13.8001 20.3894 14.2495C20.2124 14.6853 19.94 15.053 19.5723 15.3526C19.2182 15.6386 18.7756 15.8361 18.2444 15.9451V16.0472C18.7892 16.1425 19.2727 16.3196 19.6949 16.5784C20.1307 16.8371 20.4711 17.2048 20.7163 17.6815C20.975 18.1582 21.1044 18.7778 21.1044 19.5405C21.1044 20.4257 20.9138 21.1816 20.5324 21.8081C20.1647 22.4209 19.6336 22.8908 18.939 23.2176C18.6671 23.3403 18.3743 23.4389 18.0606 23.5135V25.6895H16.7531V23.6821C16.6526 23.6857 16.5504 23.6875 16.4467 23.6875H15.3231V25.6895H14.0157V23.6875H12.1363V9.1015H14.0157V7.03821H15.3231V9.1015H15.4866C15.9385 9.1015 16.3607 9.11957 16.7531 9.1557V7.03821H18.0606V9.36963ZM18.1423 14.7194C17.7337 15.1143 16.971 15.3118 15.8543 15.3118H13.9749V10.6745H15.5683C16.685 10.6745 17.4954 10.8515 17.9993 11.2056C18.5168 11.5461 18.7756 12.1181 18.7756 12.9216C18.7756 13.7115 18.5645 14.3108 18.1423 14.7194ZM13.9749 22.1349V16.8439H15.9564C16.76 16.8439 17.3932 16.9529 17.8563 17.1708C18.3193 17.3751 18.6462 17.6679 18.8369 18.0492C19.0411 18.4305 19.1433 18.88 19.1433 19.3975C19.1433 20.2146 18.9186 20.8752 18.4691 21.3791C18.0197 21.883 17.2298 22.1349 16.0994 22.1349H13.9749Z" fill="#262626"/>
</svg>
