<svg width="32" height="32" viewBox="0 0 32 32" fill="none" xmlns="http://www.w3.org/2000/svg">
<path fill-rule="evenodd" clip-rule="evenodd" d="M5.51404 21.862C5.51404 21.862 4.98912 17.2443 5.00017 16.6932C5.03885 14.8874 5.59693 13.8305 6.77386 13.4631C7.05014 12.6153 7.54743 11.1627 7.91212 10.2867C8.58899 8.6617 9.80461 7 13.7139 7H18.3139C21.5353 7 23.1266 7.98911 24.1792 10.6484C24.5301 11.5386 24.9583 12.7792 25.2401 13.6157C26.4364 14.1216 27 15.2435 27 16.8006C27 17.3658 26.7237 21.7009 26.7237 21.7009L5.51404 21.862ZM9.2189 20.0223C12.1005 20.0223 12.1198 15.413 9.16917 15.413C6.21855 15.413 6.06383 20.0223 9.2189 20.0223ZM23.0714 15.9896C20.8612 15.9896 20.7424 19.4458 23.11 19.4458C25.2705 19.4458 25.2843 15.9896 23.0714 15.9896ZM10.7108 24.5439C10.7108 26.4854 5.52233 26.4854 5.52233 24.5439V23.0828L10.7108 22.902V24.5439ZM26.7348 24.5439C26.7348 26.4854 21.7618 26.4854 21.7618 24.5439V22.9613L26.7348 23.0715V24.5439Z" fill="#262626"/>
</svg>
