<svg width="32" height="32" viewBox="0 0 32 32" fill="none" xmlns="http://www.w3.org/2000/svg">
<path d="M13.7461 17.8305C13.8551 18.9779 14.0373 19.8321 14.292 20.3929C14.5462 20.9534 15.002 21.2347 15.6579 21.2347C15.7809 21.2347 15.8914 21.2141 16.0009 21.193C16.1113 21.2141 16.2204 21.2347 16.3431 21.2347C16.998 21.2347 17.4529 20.9534 17.7089 20.3929C17.9627 19.8321 18.1453 18.9779 18.2539 17.8305L18.8364 8.97262C18.9455 7.24596 19 6.00642 19 5.2549C19 4.23118 18.7363 3.43247 18.2098 2.86012C17.681 2.28732 16.9863 2 16.1253 2C16.0802 2 16.0455 2.01054 16.0018 2.01237C15.9581 2.01054 15.9229 2 15.8783 2C15.0164 2 14.3226 2.28686 13.7943 2.86012C13.2669 3.43292 13.0032 4.23164 13.0032 5.25536C13.0032 6.00733 13.0582 7.24642 13.1668 8.97308L13.7488 17.8305M16.0185 24.4695C15.185 24.4695 14.4732 24.7385 13.8835 25.2732C13.2948 25.8112 13 26.461 13 27.2244C13 28.0896 13.298 28.7664 13.893 29.2586C14.4899 29.7516 15.185 30 15.9779 30C16.7866 30 17.4912 29.7553 18.0939 29.2691C18.6966 28.782 18.9955 28.1006 18.9955 27.224C18.9955 26.4605 18.707 25.8107 18.1313 25.2728C17.5561 24.7385 16.8515 24.4695 16.0167 24.4695" fill="#262626"/>
</svg>
