<svg width="32" height="32" viewBox="0 0 32 32" fill="none" xmlns="http://www.w3.org/2000/svg">
<path fill-rule="evenodd" clip-rule="evenodd" d="M27 13.6403L25.7477 15.2543L15.98 8.08318L6.3224 15.3354L5 13.7164L15.975 5L20.3604 8.4394L20.5082 5.93601L23.9595 6.06621L23.8768 11.1958L27 13.6403ZM8.23588 15.5442L16.0576 9.72918L24.0146 15.4361L23.8092 23.4327L26.0157 23.3861L25.9055 26H6.39253V23.789L8.37614 23.7472L8.23588 15.5442ZM10.49 20.1702L15.8397 20.0474V17.4015L10.3848 17.3597L10.49 20.1702ZM21.7129 17.4383L18.0437 17.4015L18.2015 23.5433L21.5526 23.4745L21.7129 17.4383Z" fill="#262626"/>
</svg>
