<svg width="32" height="32" viewBox="0 0 32 32" fill="none" xmlns="http://www.w3.org/2000/svg">
<path fill-rule="evenodd" clip-rule="evenodd" d="M24.185 26C22.9014 26 10.6632 25.7247 9.03533 25.7247C6.15138 25.7247 5 23.7181 5 21.3042C5 20.4426 5 18.7883 5.04132 15.2733C5.06886 12.5868 6.48743 10.8004 9.68263 10.8004C12.4371 10.8004 21.4966 10.9023 24.006 10.9023C27.3307 10.9023 28 13.052 28 15.6257C28 19.1076 27.9725 20.6821 27.9725 21.6813C27.9642 24.2136 26.2784 26 24.185 26ZM16.4559 12.3611C8.87557 12.3611 8.23102 24.1503 17.0068 24.1503C24.3778 24.1503 24.185 12.3611 16.4559 12.3611ZM18.0673 22.2042L14.985 22.1189L15.0181 19.5921L12.2884 19.5645V16.9083L15.0429 16.8395L15.0787 14.2053L17.9296 14.2604L17.9681 16.7652L20.6675 16.6964L20.7502 19.6499L18.015 19.6224L18.0673 22.2042ZM19.1085 9.71043L19.1719 8.05891L14.1008 7.98734V9.59207L11.5667 9.71869L11.4841 8.2213L14.3405 6L18.9818 6.06881L21.5986 8.42499L21.5545 9.85907L19.1085 9.71043Z" fill="#262626"/>
</svg>
