<svg width="32" height="32" viewBox="0 0 32 32" fill="none" xmlns="http://www.w3.org/2000/svg">
<path fill-rule="evenodd" clip-rule="evenodd" d="M26.8451 24.7154C24.8863 24.7154 7.57429 25 5.43536 25C3.29644 25 3 23.487 3 21.6846C3.47658 21.6846 8.27206 21.7211 13.4529 21.7649C13.4529 22.857 13.5396 22.8741 15.9247 22.8741C18.3099 22.8741 18.3692 22.8181 18.3692 21.8038C23.2103 21.8427 27.926 21.8743 29 21.8743C28.9954 23.0127 28.6602 24.7154 26.8451 24.7154ZM5.63831 20.7943C5.63831 20.7724 5.48097 10.4249 5.50833 9.16973C5.54026 7.52297 5.9872 7 7.33257 7C8.40888 7 22.8842 7.02676 24.2661 7.05838C25.8395 7.09243 26.0653 7.88297 26.0653 9.40811C26.0653 10.5197 25.7825 20.6289 25.7825 20.6289L5.63831 20.7943Z" fill="#262626"/>
</svg>
