<svg width="32" height="32" viewBox="0 0 32 32" fill="none" xmlns="http://www.w3.org/2000/svg">
<path fill-rule="evenodd" clip-rule="evenodd" d="M23.5171 10.6474L23.7006 8.80414L15.8651 14.3906L13.4331 12.4251L7.06345 17.4808L6 16.0744L13.495 10.4617L16.0973 12.4862L22.73 7.75586L20.9016 7.48069L21.3062 6L25.3124 6.6246L24.952 10.8046L23.5171 10.6474ZM11.3924 24.9716L6.43776 25L6.27194 19.5402L11.3571 19.1755L11.3924 24.9716ZM18.6885 24.9323L13.7272 24.9585L13.4375 16.6815L18.6531 16.3321L18.6885 24.9323ZM25.8408 24.8952L20.8154 24.9214L20.7071 12.6609L26 12.2831L25.8408 24.8952Z" fill="#262626"/>
</svg>
